<mxfile host="drawio-plugin" modified="2021-03-25T06:05:03.728Z" agent="5.0 (Windows NT 6.2; Win64; x64) AppleWebKit/537.36 (KHTML, like Gecko) Chrome/84.0.4147.105 Safari/537.36" etag="Zyty01reltQ6mombGXiW" version="13.7.9" type="embed"><diagram id="Vzt9glbQrdZv_3D2yDb7" name="Page-1"><mxGraphModel dx="1062" dy="725" grid="1" gridSize="10" guides="1" tooltips="1" connect="1" arrows="1" fold="1" page="1" pageScale="1" pageWidth="850" pageHeight="1100" math="0" shadow="0"><root><mxCell id="0"/><mxCell id="1" parent="0"/><mxCell id="37" style="edgeStyle=orthogonalEdgeStyle;rounded=0;orthogonalLoop=1;jettySize=auto;html=1;entryX=0.5;entryY=0;entryDx=0;entryDy=0;fontSize=14;" parent="1" source="23" target="30" edge="1"><mxGeometry relative="1" as="geometry"/></mxCell><mxCell id="23" value="开始" style="rounded=1;whiteSpace=wrap;html=1;fontSize=15;" parent="1" vertex="1"><mxGeometry x="370" y="40" width="110" height="40" as="geometry"/></mxCell><mxCell id="43" style="edgeStyle=orthogonalEdgeStyle;rounded=0;orthogonalLoop=1;jettySize=auto;html=1;entryX=1;entryY=0.5;entryDx=0;entryDy=0;fontSize=14;exitX=1;exitY=0.5;exitDx=0;exitDy=0;" parent="1" source="26" target="29" edge="1"><mxGeometry relative="1" as="geometry"><Array as="points"><mxPoint x="810" y="570"/><mxPoint x="810" y="730"/></Array></mxGeometry></mxCell><mxCell id="26" value="添加工作线程并执行" style="rounded=0;whiteSpace=wrap;html=1;fontSize=15;" parent="1" vertex="1"><mxGeometry x="625" y="540" width="150" height="60" as="geometry"/></mxCell><mxCell id="42" style="edgeStyle=orthogonalEdgeStyle;rounded=0;orthogonalLoop=1;jettySize=auto;html=1;fontSize=14;exitX=1;exitY=0.5;exitDx=0;exitDy=0;" parent="1" source="27" edge="1"><mxGeometry relative="1" as="geometry"><mxPoint x="480" y="730" as="targetPoint"/><Array as="points"><mxPoint x="810" y="460"/><mxPoint x="810" y="730"/></Array></mxGeometry></mxCell><mxCell id="27" value="添加任务到阻塞队列，等待工作线程获取执行" style="rounded=0;whiteSpace=wrap;html=1;fontSize=15;" parent="1" vertex="1"><mxGeometry x="620" y="430" width="160" height="60" as="geometry"/></mxCell><mxCell id="41" style="edgeStyle=orthogonalEdgeStyle;rounded=0;orthogonalLoop=1;jettySize=auto;html=1;exitX=1;exitY=0.5;exitDx=0;exitDy=0;entryX=1;entryY=0.5;entryDx=0;entryDy=0;fontSize=14;" parent="1" source="28" target="29" edge="1"><mxGeometry relative="1" as="geometry"><Array as="points"><mxPoint x="810" y="350"/><mxPoint x="810" y="730"/></Array></mxGeometry></mxCell><mxCell id="28" value="添加工作线程并执行" style="rounded=0;whiteSpace=wrap;html=1;fontSize=15;" parent="1" vertex="1"><mxGeometry x="625" y="320" width="150" height="60" as="geometry"/></mxCell><mxCell id="29" value="结束" style="rounded=0;whiteSpace=wrap;html=1;fontSize=15;" parent="1" vertex="1"><mxGeometry x="370" y="710" width="110" height="40" as="geometry"/></mxCell><mxCell id="38" style="edgeStyle=orthogonalEdgeStyle;rounded=0;orthogonalLoop=1;jettySize=auto;html=1;exitX=0.5;exitY=1;exitDx=0;exitDy=0;fontSize=14;" parent="1" source="30" target="31" edge="1"><mxGeometry relative="1" as="geometry"/></mxCell><mxCell id="30" value="提交任务" style="rounded=0;whiteSpace=wrap;html=1;fontSize=15;" parent="1" vertex="1"><mxGeometry x="370" y="130" width="110" height="40" as="geometry"/></mxCell><mxCell id="39" style="edgeStyle=orthogonalEdgeStyle;rounded=0;orthogonalLoop=1;jettySize=auto;html=1;fontSize=14;" parent="1" source="31" target="36" edge="1"><mxGeometry relative="1" as="geometry"/></mxCell><mxCell id="52" value="是" style="edgeStyle=orthogonalEdgeStyle;rounded=0;orthogonalLoop=1;jettySize=auto;html=1;exitX=0.5;exitY=1;exitDx=0;exitDy=0;entryX=0.5;entryY=0;entryDx=0;entryDy=0;fontSize=14;" parent="1" source="31" target="32" edge="1"><mxGeometry relative="1" as="geometry"/></mxCell><mxCell id="31" value="线程池是否还在运行" style="rhombus;whiteSpace=wrap;html=1;rounded=0;fontSize=14;" parent="1" vertex="1"><mxGeometry x="300" y="210" width="250" height="60" as="geometry"/></mxCell><mxCell id="47" value="是" style="edgeStyle=orthogonalEdgeStyle;rounded=0;orthogonalLoop=1;jettySize=auto;html=1;fontSize=14;" parent="1" source="32" target="28" edge="1"><mxGeometry relative="1" as="geometry"/></mxCell><mxCell id="49" value="否" style="edgeStyle=orthogonalEdgeStyle;rounded=0;orthogonalLoop=1;jettySize=auto;html=1;entryX=0.5;entryY=0;entryDx=0;entryDy=0;fontSize=14;" parent="1" source="32" target="33" edge="1"><mxGeometry relative="1" as="geometry"/></mxCell><mxCell id="32" value="线程数小于核心数？" style="rhombus;whiteSpace=wrap;html=1;rounded=0;fontSize=14;" parent="1" vertex="1"><mxGeometry x="300" y="320" width="250" height="60" as="geometry"/></mxCell><mxCell id="46" value="否" style="edgeStyle=orthogonalEdgeStyle;rounded=0;orthogonalLoop=1;jettySize=auto;html=1;entryX=0;entryY=0.5;entryDx=0;entryDy=0;fontSize=14;" parent="1" source="33" target="27" edge="1"><mxGeometry relative="1" as="geometry"/></mxCell><mxCell id="50" value="是" style="edgeStyle=orthogonalEdgeStyle;rounded=0;orthogonalLoop=1;jettySize=auto;html=1;exitX=0.5;exitY=1;exitDx=0;exitDy=0;entryX=0.5;entryY=0;entryDx=0;entryDy=0;fontSize=14;" parent="1" source="33" target="34" edge="1"><mxGeometry relative="1" as="geometry"/></mxCell><mxCell id="33" value="阻塞队列已满？" style="rhombus;whiteSpace=wrap;html=1;rounded=0;fontSize=14;" parent="1" vertex="1"><mxGeometry x="300" y="430" width="250" height="60" as="geometry"/></mxCell><mxCell id="45" style="edgeStyle=orthogonalEdgeStyle;rounded=0;orthogonalLoop=1;jettySize=auto;html=1;entryX=0.5;entryY=0;entryDx=0;entryDy=0;fontSize=14;" parent="1" source="34" target="36" edge="1"><mxGeometry relative="1" as="geometry"/></mxCell><mxCell id="48" value="是" style="edgeStyle=orthogonalEdgeStyle;rounded=0;orthogonalLoop=1;jettySize=auto;html=1;entryX=0;entryY=0.5;entryDx=0;entryDy=0;fontSize=14;" parent="1" source="34" target="26" edge="1"><mxGeometry relative="1" as="geometry"/></mxCell><mxCell id="34" value="线程数小于最大线程数？" style="rhombus;whiteSpace=wrap;html=1;rounded=0;fontSize=14;" parent="1" vertex="1"><mxGeometry x="300" y="540" width="250" height="60" as="geometry"/></mxCell><mxCell id="40" style="edgeStyle=orthogonalEdgeStyle;rounded=0;orthogonalLoop=1;jettySize=auto;html=1;exitX=0.5;exitY=1;exitDx=0;exitDy=0;entryX=0;entryY=0.5;entryDx=0;entryDy=0;fontSize=14;" parent="1" source="36" target="29" edge="1"><mxGeometry relative="1" as="geometry"/></mxCell><mxCell id="36" value="任务拒绝" style="rounded=0;whiteSpace=wrap;html=1;fontSize=15;" parent="1" vertex="1"><mxGeometry x="160" y="630" width="110" height="40" as="geometry"/></mxCell></root></mxGraphModel></diagram></mxfile>